In the Name of the King(2007) Hindi m-HD 480p MP3-=MTR=-
 
http://www.maxupload.net/images/11982755028787948094.jpg

Check out MY latest Uploads:
 
http://thepiratebay.org/user/HDvideos/0/7

Stay updated with us....

Seed after downloading....

EnjoY with HDvideos..

Torrent From Mastitorrents

Team Mastitorrents

Say thanks if u like my posts

Give ur valuable feedbacks

Quality Uploads from HDvideos


General
Complete name                   : In the Name of the King(2007) Hindi m-HD 480p MP3
Format                          : Matroska
File size                       : 755 MiB
Duration                        : 2h 1mn
Overall bit rate                : 866 Kbps
Encoded date                    : UTC 2011-05-17 20:16:46
Writing application             : mkvmerge v4.7.0 ('Just Like You Imagined') built on Apr 21 2011 01:13:14
Writing library                 : libebml v1.2.0 + libmatroska v1.1.0

Video
ID                              : 1
Format                          : AVC
Format/Info                     : Advanced Video Codec
Format profile                  : High@L3.1
Format settings, CABAC          : Yes
Format settings, ReFrames       : 5 frames
Format settings, GOP            : M=2, N=3
Muxing mode                     : Header stripping
Codec ID                        : V_MPEG4/ISO/AVC
Duration                        : 2h 1mn
Bit rate                        : 740 Kbps
Width                           : 848 pixels
Height                          : 368 pixels
Display aspect ratio            : 2.35:1
Frame rate                      : 23.976 fps
Color space                     : YUV
Chroma subsampling              : 4:2:0
Bit depth                       : 8 bits
Scan type                       : Progressive
Bits/(Pixel*Frame)              : 0.099
Stream size                     : 629 MiB (83%)
Writing library                 : x264 core 114 r1924 08d04a4
Encoding settings               : cabac=1 / ref=5 / deblock=1:-1:-1 / analyse=0x3:0x133 / me=umh / subme=8 / psy=1 / psy_rd=1.00:0.00 / mixed_ref=1 / me_range=24 / chroma_me=1 / trellis=2 / 8x8dct=1 / cqm=0 / deadzone=21,11 / fast_pskip=1 / chroma_qp_offset=-2 / threads=3 / sliced_threads=0 / nr=0 / decimate=1 / interlaced=0 / constrained_intra=0 / bframes=3 / b_pyramid=2 / b_adapt=2 / b_bias=0 / direct=3 / weightb=1 / open_gop=0 / weightp=2 / keyint=250 / keyint_min=23 / scenecut=40 / intra_refresh=0 / rc_lookahead=50 / rc=2pass / mbtree=1 / bitrate=740 / ratetol=1.0 / qcomp=0.60 / qpmin=10 / qpmax=69 / qpstep=4 / cplxblur=20.0 / qblur=0.5 / ip_ratio=1.40 / aq=1:1.00

Audio
ID                              : 2
Format                          : MPEG Audio
Format version                  : Version 1
Format profile                  : Layer 3
Muxing mode                     : Header stripping
Codec ID                        : A_MPEG/L3
Codec ID/Hint                   : MP3
Duration                        : 2h 1mn
Bit rate mode                   : Constant
Bit rate                        : 128 Kbps
Channel(s)                      : 2 channels
Sampling rate                   : 44.1 KHz
Compression mode                : Lossy
Delay relative to video         : 9ms
Stream size                     : 112 MiB (15%)
Writing library                 : LAME3.96.1